<svg xmlns="http://www.w3.org/2000/svg" viewBox="0 0 24 24" fill="currentColor" class="w-6 h-6">
  <path d="M12 8.25c-2.48 0-4.71.94-6.42 2.52.09-.01.18-.02.27-.02h.02c.29 0 .57.04.84.12a5.96 5.96 0 015.3 5.3c.08.27.12.55.12.84v.02c0 .09-.01.18-.02.27 1.58-1.71 2.52-3.94 2.52-6.42 0-2.02-.75-3.85-1.98-5.25a.75.75 0 00-1.06 1.06A6.705 6.705 0 0112 8.25z" />
  <path d="M9.165 18.915c.28-.08.56-.12.84-.12h.02c.09 0 .18.01.27.02a6.005 6.005 0 015.835-5.835c.01-.09.02-.18.02-.27v-.02c0-.28-.04-.56-.12-.84a5.96 5.96 0 00-5.3-5.3c-.27-.08-.55-.12-.84-.12h-.02c-.09 0-.18.01-.27.02A6.005 6.005 0 003.33 9.165c-.01.09-.02.18-.02.27v.02c0 .28.04.56.12.84a5.96 5.96 0 005.3 5.3c.27.08.55.12.84.12zM18 18.25a.75.75 0 000 1.5c.41 0 .82-.06 1.2-.19v-1.12a.75.75 0 00-1.2-.19zM19.2 15.31a.75.75 0 00-1.2-.19 6.705 6.705 0 01-1.28 1.28.75.75 0 00.19 1.2v1.12c.41-.13.82-.19 1.2-.19.2 0 .39.02.58.05l.01.01a.75.75 0 00.9-1.04 8.193 8.193 0 00-.59-1.04zM15.75 12a.75.75 0 00-1.5 0c0 .41.06.82.19 1.2h1.12a.75.75 0 00.19-1.2zM14.69 10.8a.75.75 0 00-1.2.19c-.23.53-.35 1.1-.35 1.68v.02c0 .09.01.18.02.27a.75.75 0 001.48.17A8.193 8.193 0 0014.69 10.8z" />
</svg>
