<svg xmlns="http://www.w3.org/2000/svg" viewBox="0 0 24 24" fill="currentColor" class="w-6 h-6">
  <path fill-rule="evenodd" d="M9.75 2.25a.75.75 0 01.75.75v3.75c0 .414.336.75.75.75h3a.75.75 0 01.75.75v3.75c0 .414.336.75.75.75h3.75a.75.75 0 01.75.75v3.75a.75.75 0 01-1.5 0v-3a.75.75 0 00-.75-.75h-3.75a.75.75 0 00-.75.75v3a.75.75 0 01-1.5 0v-3.75a.75.75 0 01.75-.75h3.75a.75.75 0 01.75-.75h-3a.75.75 0 00-.75.75v3.75a.75.75 0 01-1.5 0v-3a.75.75 0 00-.75-.75h-3.75a.75.75 0 00-.75.75v3a.75.75 0 01-1.5 0V2.25z" clip-rule="evenodd" />
  <path d="M4.5 4.5a.75.75 0 00-1.5 0v15a.75.75 0 001.5 0V4.5z" />
</svg>
