<svg xmlns="http://www.w3.org/2000/svg" viewBox="0 0 24 24" fill="currentColor" class="w-6 h-6">
  <path fill-rule="evenodd" d="M11.54 22.351l.07.04.028.016a.76.76 0 00.723 0l.028-.015.071-.041a16.975 16.975 0 005.16-2.25.75.75 0 00.1-1.05l-1.664-1.873a.75.75 0 00-1.11-.143l-2.175 1.305a11.942 11.942 0 01-5.516 0l-2.175-1.305a.75.75 0 00-1.11.143L2.05 19.05a.75.75 0 00.1 1.05A16.975 16.975 0 007.23 22.35l.07-.04.028-.015a.76.76 0 00.723 0l.028.015.07.041zM12 1.5C7.03 1.5 3 5.53 3 10.5S7.03 19.5 12 19.5s9-4.03 9-9-4.03-9-9-9zM8.25 10.5a3.75 3.75 0 117.5 0 3.75 3.75 0 01-7.5 0z" clip-rule="evenodd" />
</svg>
