<svg xmlns="http://www.w3.org/2000/svg" viewBox="0 0 24 24" fill="currentColor" class="w-6 h-6">
  <path d="M12.22 2h-.44a2 2 0 00-2 2v.69a2 2 0 01-1.11.38l-.44.15a2 2 0 00-1.5 2.4l.44 1.33a2 2 0 01.38 1.11l-.15.44a2 2 0 002.4 1.5l1.33-.44a2 2 0 011.11-.38l.44-.15a2 2 0 002-2V8.31a2 2 0 011.11-.38l.44-.15a2 2 0 001.5-2.4l-.44-1.33a2 2 0 01-.38-1.11l.15-.44a2 2 0 00-2.4-1.5l-1.33.44a2 2 0 01-1.11.38V4a2 2 0 00-2-2z" />
  <path d="M12.22 13h-.44a2 2 0 00-2 2v.69a2 2 0 01-1.11.38l-.44.15a2 2 0 00-1.5 2.4l.44 1.33a2 2 0 01.38 1.11l-.15.44a2 2 0 002.4 1.5l1.33-.44a2 2 0 011.11-.38l.44-.15a2 2 0 002-2v-5.69a2 2 0 011.11-.38l.44-.15a2 2 0 001.5-2.4l-.44-1.33a2 2 0 01-.38-1.11l.15-.44a2 2 0 00-2.4-1.5l-1.33.44a2 2 0 01-1.11.38V15a2 2 0 00-2-2z" />
</svg>
