<svg xmlns="http://www.w3.org/2000/svg" viewBox="0 0 24 24" fill="currentColor" class="w-6 h-6">
  <path d="M10.5 4.5a.75.75 0 00-1.5 0v8.25a.75.75 0 001.5 0V4.5z" />
  <path fill-rule="evenodd" d="M4.125 3C3.504 3 3 3.504 3 4.125v15.75C3 20.496 3.504 21 4.125 21h15.75c.621 0 1.125-.504 1.125-1.125V4.125C21 3.504 20.496 3 19.875 3H4.125zM4.5 4.5h15v15h-15V4.5z" clip-rule="evenodd" />
  <path d="M10.125 15a.375.375 0 11-.75 0 .375.375 0 01.75 0zM11.25 15a.375.375 0 11-.75 0 .375.375 0 01.75 0zM12.375 15a.375.375 0 11-.75 0 .375.375 0 01.75 0zM13.5 15a.375.375 0 11-.75 0 .375.375 0 01.75 0zM14.625 15a.375.375 0 11-.75 0 .375.375 0 01.75 0zM15.75 15a.375.375 0 11-.75 0 .375.375 0 01.75 0zM10.125 16.125a.375.375 0 11-.75 0 .375.375 0 01.75 0zM11.25 16.125a.375.375 0 11-.75 0 .375.375 0 01.75 0zM12.375 16.125a.375.375 0 11-.75 0 .375.375 0 01.75 0zM13.5 16.125a.375.375 0 11-.75 0 .375.375 0 01.75 0zM14.625 16.125a.375.375 0 11-.75 0 .375.375 0 01.75 0zM15.75 16.125a.375.375 0 11-.75 0 .375.375 0 01.75 0z" />
</svg>
