<?xml version="1.0" encoding="utf-8" ?>
<svg baseProfile="full" height="152" version="1.1" viewBox="0 0 454 152" width="454" xmlns="http://www.w3.org/2000/svg" xmlns:ev="http://www.w3.org/2001/xml-events" xmlns:xlink="http://www.w3.org/1999/xlink"><defs /><path d="M 201,93 L 201,95 L 206,96 L 207,98 L 214,101 L 217,101 L 220,104 L 226,105 L 227,107 L 231,107 L 232,109 L 236,110 L 240,113 L 244,113 L 245,115 L 249,116 L 253,119 L 258,120 L 446,120 L 446,118 L 257,118 L 248,113 L 243,113 L 239,109 L 234,107 L 230,107 L 226,103 L 221,101 L 217,101 L 215,98 L 207,96 L 204,93 Z " fill="#00a89d" fill-rule="evenodd" stroke="none" /><path d="M 141,89 L 141,96 L 144,96 L 146,94 L 146,92 L 144,92 L 143,89 Z " fill="#00a89d" fill-rule="evenodd" stroke="none" /><path d="M 133,65 L 87,65 L 86,64 L 70,63 L 67,66 L 67,73 L 70,76 L 76,76 L 81,73 L 123,73 L 125,75 L 125,107 L 113,115 L 104,119 L 93,127 L 89,128 L 79,135 L 77,135 L 69,140 L 59,136 L 46,127 L 44,127 L 20,112 L 16,111 L 11,106 L 12,90 L 14,87 L 13,80 L 10,78 L 5,78 L 0,81 L 0,90 L 3,93 L 3,113 L 5,115 L 16,120 L 27,128 L 29,128 L 43,137 L 47,138 L 50,141 L 56,143 L 62,148 L 66,149 L 67,151 L 71,151 L 75,147 L 94,137 L 109,127 L 111,127 L 134,113 L 134,81 L 133,80 L 134,66 Z M 6,80 L 8,80 L 11,83 L 11,87 L 9,89 L 5,89 L 3,87 L 3,83 Z M 72,65 L 76,65 L 78,67 L 78,71 L 75,74 L 73,74 L 69,70 L 69,68 Z " fill="#00a89d" fill-rule="evenodd" stroke="none" /><path d="M 67,0 L 66,2 L 61,3 L 38,18 L 36,18 L 32,22 L 21,28 L 19,28 L 16,31 L 5,37 L 3,40 L 3,56 L 4,57 L 4,68 L 6,70 L 20,77 L 23,80 L 29,82 L 40,90 L 64,103 L 68,109 L 75,110 L 76,107 L 80,105 L 80,102 L 76,96 L 70,96 L 62,91 L 59,91 L 52,85 L 40,79 L 35,75 L 29,73 L 23,68 L 15,65 L 12,62 L 11,57 L 12,45 L 17,40 L 26,36 L 31,32 L 36,30 L 37,28 L 41,27 L 44,24 L 46,24 L 53,19 L 55,19 L 66,11 L 70,11 L 77,16 L 83,18 L 86,21 L 119,39 L 121,41 L 119,51 L 123,56 L 130,56 L 133,53 L 133,48 L 131,47 L 131,36 L 126,32 L 113,25 L 111,25 L 91,12 L 89,12 L 77,4 L 71,2 L 70,0 Z M 68,102 L 71,99 L 75,99 L 77,101 L 77,106 L 76,107 L 70,107 L 68,105 Z M 124,45 L 128,45 L 131,47 L 131,50 L 127,54 L 125,54 L 122,51 L 122,47 Z " fill="#00a89d" fill-rule="evenodd" stroke="none" /><path d="M 71,100 L 69,102 L 69,105 L 70,106 L 75,106 L 76,101 Z " fill="#e5e5e5" fill-rule="evenodd" stroke="none" /><path d="M 300,92 L 300,110 L 301,111 L 310,110 L 310,102 L 311,101 L 313,101 L 323,111 L 325,111 L 325,108 L 328,107 L 331,110 L 336,112 L 343,111 L 347,107 L 349,107 L 351,111 L 363,111 L 364,110 L 369,111 L 371,102 L 373,102 L 382,111 L 385,110 L 388,111 L 391,110 L 395,111 L 409,110 L 412,111 L 414,105 L 416,105 L 421,111 L 435,111 L 438,108 L 446,108 L 449,111 L 451,111 L 451,108 L 443,92 L 440,93 L 434,106 L 431,107 L 430,106 L 430,92 L 427,92 L 427,96 L 424,97 L 420,92 L 416,91 L 410,91 L 409,92 L 406,91 L 395,91 L 394,92 L 381,91 L 380,92 L 380,100 L 377,101 L 368,92 L 351,91 L 349,100 L 338,100 L 338,103 L 343,104 L 343,106 L 341,108 L 333,107 L 330,103 L 330,100 L 335,95 L 345,96 L 345,94 L 343,92 L 336,91 L 331,93 L 328,96 L 326,96 L 325,92 L 322,91 L 320,101 L 318,101 L 309,92 L 304,92 L 303,91 Z M 440,102 L 443,101 L 444,104 L 441,105 Z M 424,99 L 427,100 L 427,107 L 426,108 L 424,108 L 421,105 L 421,103 Z M 415,95 L 418,95 L 420,97 L 420,99 L 418,101 L 415,101 L 413,99 L 413,97 Z M 399,95 L 408,95 L 409,96 L 409,107 L 408,108 L 399,108 L 398,107 L 399,103 L 405,103 L 405,100 L 399,100 L 398,99 Z M 356,95 L 365,95 L 366,96 L 366,107 L 365,108 L 356,108 L 355,107 L 356,103 L 361,103 L 361,100 L 356,100 L 355,99 Z " fill="#e5e5e5" fill-rule="evenodd" stroke="none" /><path d="M 257,92 L 257,110 L 258,111 L 268,111 L 274,106 L 277,107 L 278,111 L 289,111 L 289,108 L 282,108 L 281,107 L 282,103 L 288,103 L 288,100 L 282,100 L 281,96 L 282,95 L 289,95 L 290,94 L 289,91 L 278,91 L 276,97 L 274,97 L 269,92 L 258,91 Z M 263,95 L 267,95 L 271,100 L 270,105 L 266,108 L 263,108 L 261,106 L 261,97 Z " fill="#e5e5e5" fill-rule="evenodd" stroke="none" /><path d="M 6,81 L 4,83 L 4,87 L 9,88 L 10,83 L 8,81 Z " fill="#e5e5e5" fill-rule="evenodd" stroke="none" /><path d="M 72,66 L 70,68 L 70,70 L 73,73 L 75,73 L 77,71 L 77,67 Z " fill="#e5e5e5" fill-rule="evenodd" stroke="none" /><path d="M 124,46 L 123,51 L 125,53 L 127,53 L 130,50 L 130,48 L 128,46 Z " fill="#e5e5e5" fill-rule="evenodd" stroke="none" /><path d="M 399,44 L 399,82 L 400,83 L 422,83 L 424,77 L 426,77 L 430,81 L 435,83 L 444,83 L 447,82 L 453,77 L 453,66 L 447,61 L 439,58 L 435,55 L 435,53 L 438,50 L 442,50 L 446,53 L 449,53 L 451,51 L 451,47 L 445,43 L 435,43 L 428,49 L 428,58 L 433,63 L 442,67 L 445,70 L 445,73 L 443,75 L 438,76 L 432,72 L 429,72 L 425,76 L 423,76 L 422,75 L 409,75 L 407,73 L 407,68 L 409,66 L 420,66 L 421,65 L 421,60 L 420,59 L 409,59 L 407,57 L 407,53 L 409,51 L 422,51 L 423,50 L 423,44 L 422,43 L 400,43 Z " fill="#e5e5e5" fill-rule="evenodd" stroke="none" /><path d="M 362,43 L 362,82 L 363,83 L 368,83 L 369,82 L 369,63 L 370,62 L 372,62 L 391,82 L 394,82 L 394,44 L 393,43 L 387,43 L 386,44 L 386,62 L 383,63 L 364,43 Z " fill="#e5e5e5" fill-rule="evenodd" stroke="none" /><path d="M 332,43 L 326,46 L 321,51 L 318,58 L 318,68 L 322,76 L 328,81 L 333,83 L 343,83 L 351,79 L 356,73 L 358,67 L 358,58 L 356,53 L 350,46 L 344,43 Z M 335,50 L 341,50 L 345,52 L 350,58 L 351,62 L 350,67 L 342,75 L 332,74 L 327,69 L 325,64 L 327,56 Z " fill="#e5e5e5" fill-rule="evenodd" stroke="none" /><path d="M 308,43 L 307,44 L 307,82 L 308,83 L 313,83 L 314,82 L 314,44 L 313,43 Z " fill="#e5e5e5" fill-rule="evenodd" stroke="none" /><path d="M 284,43 L 278,46 L 271,54 L 270,69 L 273,75 L 280,81 L 285,83 L 294,83 L 303,78 L 303,75 L 300,72 L 298,72 L 291,76 L 285,75 L 279,70 L 277,65 L 277,60 L 279,56 L 287,50 L 292,50 L 298,54 L 300,54 L 302,52 L 303,48 L 295,43 Z " fill="#e5e5e5" fill-rule="evenodd" stroke="none" /><path d="M 237,43 L 236,44 L 236,71 L 238,76 L 244,82 L 247,83 L 258,82 L 262,79 L 266,71 L 266,44 L 265,43 L 260,43 L 259,44 L 259,67 L 258,71 L 254,75 L 250,76 L 244,71 L 244,44 L 243,43 Z " fill="#e5e5e5" fill-rule="evenodd" stroke="none" /><path d="M 210,43 L 209,44 L 209,82 L 210,83 L 232,83 L 233,82 L 233,76 L 232,75 L 219,75 L 217,73 L 217,44 L 216,43 Z " fill="#e5e5e5" fill-rule="evenodd" stroke="none" /><path d="M 138,49 L 137,55 L 139,60 L 152,67 L 155,70 L 155,73 L 150,76 L 145,75 L 142,72 L 139,72 L 136,74 L 136,77 L 140,81 L 145,83 L 154,83 L 160,80 L 163,75 L 164,70 L 166,70 L 168,74 L 174,80 L 181,83 L 190,83 L 198,79 L 203,73 L 205,68 L 205,57 L 202,51 L 197,46 L 191,43 L 179,43 L 173,46 L 167,53 L 164,66 L 162,66 L 157,61 L 151,59 L 145,55 L 145,53 L 148,50 L 152,50 L 156,53 L 159,53 L 161,51 L 161,48 L 159,45 L 155,43 L 145,43 L 141,45 Z M 180,51 L 188,50 L 192,52 L 197,58 L 198,61 L 197,68 L 190,75 L 181,75 L 173,67 L 173,59 L 175,55 Z " fill="#e5e5e5" fill-rule="evenodd" stroke="none" /></svg>