<?xml version="1.0" encoding="UTF-8"?>
<svg xmlns="http://www.w3.org/2000/svg" xmlns:xlink="http://www.w3.org/1999/xlink" viewBox="0 0 262.83 297.41">
  <defs>
    <style>
      .cls-1 {
        stroke-width: 18.8px;
      }

      .cls-1, .cls-2 {
        stroke: #00a79d;
      }

      .cls-1, .cls-2, .cls-3, .cls-4, .cls-5, .cls-6, .cls-7, .cls-8, .cls-9, .cls-10, .cls-11 {
        stroke-miterlimit: 10;
      }

      .cls-1, .cls-2, .cls-4, .cls-5, .cls-6, .cls-7, .cls-8, .cls-9, .cls-10, .cls-11 {
        fill: none;
      }

      .cls-2 {
        stroke-width: 5.6px;
      }

      .cls-3 {
        fill: #fff;
        stroke: #00a89e;
      }

      .cls-3, .cls-4, .cls-7, .cls-8, .cls-9, .cls-10, .cls-11 {
        stroke-width: 7.09px;
      }

      .cls-12 {
        isolation: isolate;
      }

      .cls-4 {
        stroke: url(#New_Gradient_Swatch_5);
      }

      .cls-4, .cls-5, .cls-6, .cls-7, .cls-8, .cls-9, .cls-10, .cls-11 {
        mix-blend-mode: color-dodge;
      }

      .cls-5 {
        stroke: url(#New_Gradient_Swatch_5-7);
      }

      .cls-5, .cls-6 {
        stroke-width: 8.87px;
      }

      .cls-6 {
        stroke: url(#New_Gradient_Swatch_5-8);
      }

      .cls-7 {
        stroke: url(#New_Gradient_Swatch_5-3);
      }

      .cls-8 {
        stroke: url(#New_Gradient_Swatch_5-4);
      }

      .cls-9 {
        stroke: url(#New_Gradient_Swatch_5-2);
      }

      .cls-10 {
        stroke: url(#New_Gradient_Swatch_5-5);
      }

      .cls-11 {
        stroke: url(#New_Gradient_Swatch_5-6);
      }
    </style>
    <radialGradient id="New_Gradient_Swatch_5" data-name="New Gradient Swatch 5" cx="131.43" cy="102.65" fx="131.43" fy="102.65" r="108.45" gradientUnits="userSpaceOnUse">
      <stop offset=".06" stop-color="#3b3b3b"/>
      <stop offset="1" stop-color="#000"/>
    </radialGradient>
    <radialGradient id="New_Gradient_Swatch_5-2" data-name="New Gradient Swatch 5" cx="134.43" cy="211.11" fx="134.43" fy="211.11" r="102.92" xlink:href="#New_Gradient_Swatch_5"/>
    <radialGradient id="New_Gradient_Swatch_5-3" data-name="New Gradient Swatch 5" cx="246.94" cy="97.18" fx="246.94" fy="97.18" r="14.97" xlink:href="#New_Gradient_Swatch_5"/>
    <radialGradient id="New_Gradient_Swatch_5-4" data-name="New Gradient Swatch 5" cx="142.43" cy="136.74" fx="142.43" fy="136.74" r="14.97" xlink:href="#New_Gradient_Swatch_5"/>
    <radialGradient id="New_Gradient_Swatch_5-5" data-name="New Gradient Swatch 5" cx="142.67" cy="200.73" fx="142.67" fy="200.73" r="14.97" gradientTransform="translate(183.72 -42.09) rotate(45)" xlink:href="#New_Gradient_Swatch_5"/>
    <radialGradient id="New_Gradient_Swatch_5-6" data-name="New Gradient Swatch 5" cx="15.07" cy="165.15" fx="15.07" fy="165.15" r="14.97" xlink:href="#New_Gradient_Swatch_5"/>
    <radialGradient id="New_Gradient_Swatch_5-7" data-name="New Gradient Swatch 5" cx="131.43" cy="100.38" fx="131.43" fy="100.38" r="109.33" xlink:href="#New_Gradient_Swatch_5"/>
    <radialGradient id="New_Gradient_Swatch_5-8" data-name="New Gradient Swatch 5" cx="134.43" cy="209.18" fx="134.43" fy="209.18" r="103.81" xlink:href="#New_Gradient_Swatch_5"/>
  </defs>
  <g class="cls-12">
    <g id="Capa_2" data-name="Capa 2">
      <g id="Objects">
        <g>
          <polyline class="cls-1" points="134.68 195.84 15.43 127.13 15.43 81.08 133.97 10.86 247.43 75.13 247.43 85.63"/>
          <polyline class="cls-1" points="15.43 176.63 15.43 217.87 134.43 286.54 253.43 217.12 253.43 173.35 253.43 146.19 253.43 137.13 153.93 137.13"/>
          <path class="cls-2" d="M258.36,97.37c0,6.31-5.11,11.42-11.42,11.42s-11.42-5.11-11.42-11.42,5.11-11.42,11.42-11.42,11.42,5.11,11.42,11.42Z"/>
          <path class="cls-2" d="M153.85,136.93c0,6.31-5.11,11.42-11.42,11.42s-11.42-5.11-11.42-11.42,5.11-11.42,11.42-11.42,11.42,5.11,11.42,11.42Z"/>
          <circle class="cls-2" cx="142.67" cy="200.91" r="11.42"/>
          <circle class="cls-2" cx="15.07" cy="165.33" r="11.42" transform="translate(-150.54 153.72) rotate(-80.78)"/>
          <polyline class="cls-4" points="134.68 195.65 15.43 126.95 15.43 80.89 133.97 10.68 247.43 74.95 247.43 85.63"/>
          <polyline class="cls-9" points="15.43 175.63 15.43 216.87 134.43 285.54 253.43 216.12 253.43 172.35 253.43 145.19 253.43 136.13 153.93 136.13"/>
          <path class="cls-7" d="M258.36,97.18c0,6.31-5.11,11.42-11.42,11.42s-11.42-5.11-11.42-11.42,5.11-11.42,11.42-11.42,11.42,5.11,11.42,11.42Z"/>
          <path class="cls-8" d="M153.85,136.74c0,6.31-5.11,11.42-11.42,11.42s-11.42-5.11-11.42-11.42,5.11-11.42,11.42-11.42,11.42,5.11,11.42,11.42Z"/>
          <circle class="cls-10" cx="142.67" cy="200.73" r="11.42" transform="translate(-100.15 159.67) rotate(-45)"/>
          <circle class="cls-11" cx="15.07" cy="165.15" r="11.42"/>
          <polyline class="cls-5" points="134.68 193.51 15.43 124.81 15.43 78.75 133.97 8.53 247.43 72.8 247.43 83.63"/>
          <polyline class="cls-6" points="15.43 173.63 15.43 214.87 134.43 283.54 253.43 214.12 253.43 170.35 253.43 143.19 253.43 134.13 153.93 134.13"/>
        </g>
        <circle class="cls-3" cx="246.94" cy="97.37" r="11.52"/>
        <circle class="cls-3" cx="142.43" cy="136.93" r="11.52"/>
        <circle class="cls-3" cx="15.07" cy="165.15" r="11.52"/>
        <circle class="cls-3" cx="142.85" cy="200.91" r="11.52"/>
      </g>
    </g>
  </g>
</svg>