<?xml version="1.0" encoding="UTF-8" standalone="no"?>
<!-- Created with Inkscape (http://www.inkscape.org/) -->

<svg
   xmlns:dc="http://purl.org/dc/elements/1.1/"
   xmlns:cc="http://creativecommons.org/ns#"
   xmlns:rdf="http://www.w3.org/1999/02/22-rdf-syntax-ns#"
   xmlns:svg="http://www.w3.org/2000/svg"
   xmlns="http://www.w3.org/2000/svg"
   version="1.1"
   width="892.91339"
   height="291.25983"
   id="svg14516"
   xml:space="preserve"><metadata
     id="metadata14522"><rdf:RDF><cc:Work
         rdf:about=""><dc:format>image/svg+xml</dc:format><dc:type
           rdf:resource="http://purl.org/dc/dcmitype/StillImage" /><dc:title></dc:title></cc:Work></rdf:RDF></metadata><defs
     id="defs14520"><clipPath
       id="clipPath14582"><path
         d="m 0,0 595.276,0 0,841.89 L 0,841.89 0,0 z"
         id="path14584" /></clipPath></defs><g
     transform="matrix(1.25,0,0,-1.25,58.550107,781.84886)"
     id="g14524"><g
       transform="matrix(5.9268435,0,0,5.9268435,-270.54836,-4163.4738)"
       id="g14598"><g
         transform="translate(63.1102,791.149)"
         id="g14574"><path
           d="m 0,0 -24.887,-7.512 0,-14.456 34.482,0 0,10.029"
           id="path14576"
           style="fill:#f25c29;fill-opacity:1;fill-rule:nonzero;stroke:none" /></g><g
         id="g14578"><g
           clip-path="url(#clipPath14582)"
           id="g14580"><g
             transform="translate(75.6283,769.1807)"
             id="g14586"><path
               d="m 0,0 82.163,0.003 0,38.343 L 0,38.339 0,0 z m 46.382,6.322 -2,0 0,12.299 2,0 0,-12.299 z m 16.801,12.3 0,-1.54 0.04,0 c 0.599,1.318 1.644,1.782 3.082,1.782 1.121,0 2.415,-0.464 2.851,-1.584 0.688,1.318 1.811,1.584 2.932,1.584 1.298,0 3.369,-0.291 3.369,-3.192 l 0,-9.35 -2.002,0 0,8.519 c 0,1.248 -0.338,2.386 -1.948,2.386 -0.754,0 -0.983,-0.02 -1.515,-0.457 -0.583,-0.491 -0.679,-1.713 -0.679,-2.179 l 0,-8.269 -1.984,0 0,8.519 c 0,1.248 -0.34,2.386 -1.943,2.386 -0.619,0 -1.45,-0.36 -1.736,-0.827 -0.372,-0.611 -0.467,-1.343 -0.467,-1.809 l 0,-8.269 -2.002,0 0,9.738 c 0,0.859 -0.045,1.706 -0.12,2.562 l 2.122,0 z m -13.509,0 1.97,0 0,-8.542 c 0,-1.463 0.685,-2.466 2.11,-2.466 1.074,0 2.403,0.797 2.403,2.835 l 0,8.173 2.009,0 0,-9.735 c 0,-0.865 0.043,-1.717 0.123,-2.565 l -2.132,0 0,1.49 -0.073,0 C 55.433,6.685 54.249,6.073 52.97,6.073 c -2.157,0 -3.296,1.074 -3.296,3.174 l 0,9.375 z m -5.418,5.283 2.242,0 0,-2.135 -2.242,0 0,2.135 z m -9.673,-5.283 0,-1.585 0.102,0 c 0.782,1.38 1.709,1.827 3.298,1.827 2.64,0 3.306,-1.584 3.306,-4.023 l 0,-8.519 -2.007,0 0,8.519 c 0,1.321 -0.47,2.386 -2.173,2.386 -2.205,0 -2.526,-1.946 -2.526,-3.632 l 0,-7.273 -1.987,0 0,9.738 c 0,0.859 -0.048,1.706 -0.11,2.562 l 2.097,0 z m -9.649,0 2.005,0 0,-1.852 0.048,0 c 0.827,1.871 1.857,2.094 3.812,2.094 l 0,-2.072 c -0.171,0.024 -0.37,0.052 -0.547,0.075 -0.174,0.021 -0.334,0.052 -0.532,0.052 -2.227,0 -2.781,-1.683 -2.781,-3.351 l 0,-7.246 -2.005,0 0,12.3 z m -7.046,0.242 c 3.508,0 4.387,-1.926 4.387,-6.003 l 0,-1.049 -6.912,0 c 0,-3.422 0.927,-4.101 2.474,-4.101 1.372,0 2.078,1.1 2.151,2.318 l 2.195,0 C 22.154,7.321 20.471,6.073 17.888,6.073 c -2.598,0 -4.669,0.784 -4.669,6.199 0,3.615 0.415,6.592 4.669,6.592 m -13.961,5.041 10.592,0 0,-1.943 -4.186,0 0,-15.64 -2.226,0 0,15.64 -4.18,0 0,1.943 z"
               id="path14588"
               style="fill:#7a7a80;fill-opacity:1;fill-rule:nonzero;stroke:none" /></g><g
             transform="translate(93.3265,786.5298)"
             id="g14590"><path
               d="m 0,0 c -1.268,0 -2.314,-0.602 -2.335,-4.026 l 4.795,0 C 2.46,-0.43 1.458,0 0,0"
               id="path14592"
               style="fill:#7a7a80;fill-opacity:1;fill-rule:nonzero;stroke:none" /></g></g></g><g
         transform="translate(38.2235,786.148)"
         id="g14594"><path
           d="m 0,0 13.145,13.739 21.337,-12.03 0,19.659 -34.482,0"
           id="path14596"
           style="fill:#faad42;fill-opacity:1;fill-rule:nonzero;stroke:none" /></g></g></g></svg>