<?xml version="1.0" encoding="utf-8" ?>
<svg baseProfile="full" height="305" version="1.1" viewBox="0 0 256 305" width="256" xmlns="http://www.w3.org/2000/svg" xmlns:ev="http://www.w3.org/2001/xml-events" xmlns:xlink="http://www.w3.org/1999/xlink"><defs /><path d="M 247,136 L 146,136 L 142,133 L 132,133 L 126,138 L 124,142 L 124,150 L 126,154 L 132,159 L 142,159 L 148,154 L 229,154 L 231,156 L 231,215 L 223,221 L 218,223 L 129,276 L 126,276 L 120,273 L 113,268 L 27,219 L 24,216 L 24,185 L 28,179 L 28,170 L 26,166 L 21,162 L 18,161 L 9,162 L 4,166 L 2,170 L 2,179 L 6,185 L 6,227 L 72,266 L 84,272 L 91,277 L 96,279 L 103,284 L 115,290 L 126,297 L 129,297 L 240,231 L 245,229 L 248,226 L 248,137 Z M 14,166 L 20,168 L 23,172 L 23,177 L 16,183 L 10,181 L 7,177 L 8,170 L 11,167 Z M 135,138 L 140,138 L 145,143 L 145,149 L 140,154 L 133,153 L 129,148 L 130,142 Z " fill="#00a89d" fill-rule="evenodd" stroke="none" /><path d="M 125,18 L 14,85 L 9,87 L 6,90 L 6,143 L 94,195 L 118,208 L 128,220 L 133,222 L 141,221 L 146,217 L 149,209 L 148,203 L 143,197 L 139,195 L 130,195 L 42,143 L 30,137 L 24,132 L 24,100 L 123,40 L 128,39 L 223,93 L 225,95 L 225,98 L 221,103 L 220,112 L 225,120 L 229,122 L 238,122 L 242,120 L 246,115 L 247,106 L 242,98 L 242,84 L 240,82 L 130,19 Z M 133,200 L 137,200 L 143,205 L 143,211 L 138,216 L 132,216 L 127,210 L 128,204 Z M 231,101 L 238,102 L 242,108 L 240,114 L 236,117 L 229,116 L 225,110 L 227,104 Z " fill="#00a89d" fill-rule="evenodd" stroke="none" /></svg>