<?xml version="1.0" encoding="UTF-8"?>
<svg xmlns="http://www.w3.org/2000/svg" xmlns:xlink="http://www.w3.org/1999/xlink" viewBox="0 0 993.74 297.41">
  <defs>
    <style>
      .cls-1 {
        stroke: url(#Degradado_sin_nombre_6);
        stroke-width: 3.88px;
      }

      .cls-1, .cls-2, .cls-3, .cls-4, .cls-5, .cls-6, .cls-7, .cls-8, .cls-9, .cls-10, .cls-11, .cls-12, .cls-13 {
        stroke-miterlimit: 10;
      }

      .cls-1, .cls-2, .cls-3, .cls-4, .cls-6, .cls-7, .cls-8, .cls-9, .cls-10, .cls-11, .cls-12, .cls-13 {
        fill: none;
      }

      .cls-2 {
        stroke-width: 1.88px;
      }

      .cls-2, .cls-3, .cls-4 {
        stroke: #00a79d;
      }

      .cls-3 {
        stroke-width: 18.8px;
      }

      .cls-4 {
        stroke-width: 5.6px;
      }

      .cls-5 {
        fill: #fff;
        stroke: #00a89e;
      }

      .cls-5, .cls-6, .cls-9, .cls-10, .cls-11, .cls-12, .cls-13 {
        stroke-width: 7.09px;
      }

      .cls-14 {
        isolation: isolate;
      }

      .cls-6 {
        stroke: url(#New_Gradient_Swatch_5);
      }

      .cls-6, .cls-7, .cls-8, .cls-9, .cls-10, .cls-11, .cls-12, .cls-13 {
        mix-blend-mode: color-dodge;
      }

      .cls-7 {
        stroke: url(#New_Gradient_Swatch_5-7);
      }

      .cls-7, .cls-8 {
        stroke-width: 8.87px;
      }

      .cls-8 {
        stroke: url(#New_Gradient_Swatch_5-8);
      }

      .cls-9 {
        stroke: url(#New_Gradient_Swatch_5-3);
      }

      .cls-10 {
        stroke: url(#New_Gradient_Swatch_5-4);
      }

      .cls-11 {
        stroke: url(#New_Gradient_Swatch_5-2);
      }

      .cls-12 {
        stroke: url(#New_Gradient_Swatch_5-5);
      }

      .cls-13 {
        stroke: url(#New_Gradient_Swatch_5-6);
      }

      .cls-15 {
        fill: #f2f2f2;
      }
    </style>
    <linearGradient id="Degradado_sin_nombre_6" data-name="Degradado sin nombre 6" x1="286.93" y1="205.13" x2="988.93" y2="205.13" gradientUnits="userSpaceOnUse">
      <stop offset="0" stop-color="#00a79d"/>
      <stop offset=".01" stop-color="#24bdb5"/>
      <stop offset=".03" stop-color="#4bd4cf"/>
      <stop offset=".05" stop-color="#69e7e4"/>
      <stop offset=".07" stop-color="#7ff4f3"/>
      <stop offset=".08" stop-color="#8cfcfc"/>
      <stop offset=".1" stop-color="#91ffff"/>
      <stop offset=".17" stop-color="#73edeb"/>
      <stop offset=".28" stop-color="#50d7d3"/>
      <stop offset=".4" stop-color="#33c6bf"/>
      <stop offset=".52" stop-color="#1cb8b0"/>
      <stop offset=".65" stop-color="#0caea5"/>
      <stop offset=".8" stop-color="#02a89f"/>
      <stop offset="1" stop-color="#00a79d"/>
    </linearGradient>
    <radialGradient id="New_Gradient_Swatch_5" data-name="New Gradient Swatch 5" cx="131.43" cy="102.65" fx="131.43" fy="102.65" r="108.45" gradientUnits="userSpaceOnUse">
      <stop offset=".06" stop-color="#3b3b3b"/>
      <stop offset="1" stop-color="#000"/>
    </radialGradient>
    <radialGradient id="New_Gradient_Swatch_5-2" data-name="New Gradient Swatch 5" cx="134.43" cy="211.11" fx="134.43" fy="211.11" r="102.92" xlink:href="#New_Gradient_Swatch_5"/>
    <radialGradient id="New_Gradient_Swatch_5-3" data-name="New Gradient Swatch 5" cx="246.94" cy="97.18" fx="246.94" fy="97.18" r="14.97" xlink:href="#New_Gradient_Swatch_5"/>
    <radialGradient id="New_Gradient_Swatch_5-4" data-name="New Gradient Swatch 5" cx="142.43" cy="136.74" fx="142.43" fy="136.74" r="14.97" xlink:href="#New_Gradient_Swatch_5"/>
    <radialGradient id="New_Gradient_Swatch_5-5" data-name="New Gradient Swatch 5" cx="142.67" cy="200.73" fx="142.67" fy="200.73" r="14.97" gradientTransform="translate(183.72 -42.09) rotate(45)" xlink:href="#New_Gradient_Swatch_5"/>
    <radialGradient id="New_Gradient_Swatch_5-6" data-name="New Gradient Swatch 5" cx="15.07" cy="165.15" fx="15.07" fy="165.15" r="14.97" xlink:href="#New_Gradient_Swatch_5"/>
    <radialGradient id="New_Gradient_Swatch_5-7" data-name="New Gradient Swatch 5" cx="131.43" cy="100.38" fx="131.43" fy="100.38" r="109.33" xlink:href="#New_Gradient_Swatch_5"/>
    <radialGradient id="New_Gradient_Swatch_5-8" data-name="New Gradient Swatch 5" cx="134.43" cy="209.18" fx="134.43" fy="209.18" r="103.81" xlink:href="#New_Gradient_Swatch_5"/>
  </defs>
  <g class="cls-14">
    <g id="Capa_2" data-name="Capa 2">
      <g id="Objects">
        <polyline class="cls-1" points="286.93 176.63 412.71 176.63 546.97 233.63 988.93 233.63"/>
        <path class="cls-2" d="M285.1,181.99c-2.61,2.61-6.85,2.61-9.46,0-2.61-2.61-2.61-6.85,0-9.46,2.61-2.61,6.85-2.61,9.46,0,2.61,2.61,2.61,6.85,0,9.46Z"/>
        <g>
          <polyline class="cls-3" points="134.68 195.84 15.43 127.13 15.43 81.08 133.97 10.86 247.43 75.13 247.43 85.63"/>
          <polyline class="cls-3" points="15.43 176.63 15.43 217.87 134.43 286.54 253.43 217.12 253.43 173.35 253.43 146.19 253.43 137.13 153.93 137.13"/>
          <path class="cls-4" d="M258.36,97.37c0,6.31-5.11,11.42-11.42,11.42s-11.42-5.11-11.42-11.42,5.11-11.42,11.42-11.42,11.42,5.11,11.42,11.42Z"/>
          <path class="cls-4" d="M153.85,136.93c0,6.31-5.11,11.42-11.42,11.42s-11.42-5.11-11.42-11.42,5.11-11.42,11.42-11.42,11.42,5.11,11.42,11.42Z"/>
          <circle class="cls-4" cx="142.67" cy="200.91" r="11.42"/>
          <circle class="cls-4" cx="15.07" cy="165.33" r="11.42" transform="translate(-150.54 153.72) rotate(-80.78)"/>
          <polyline class="cls-6" points="134.68 195.65 15.43 126.95 15.43 80.89 133.97 10.68 247.43 74.95 247.43 85.63"/>
          <polyline class="cls-11" points="15.43 175.63 15.43 216.87 134.43 285.54 253.43 216.12 253.43 172.35 253.43 145.19 253.43 136.13 153.93 136.13"/>
          <path class="cls-9" d="M258.36,97.18c0,6.31-5.11,11.42-11.42,11.42s-11.42-5.11-11.42-11.42,5.11-11.42,11.42-11.42,11.42,5.11,11.42,11.42Z"/>
          <path class="cls-10" d="M153.85,136.74c0,6.31-5.11,11.42-11.42,11.42s-11.42-5.11-11.42-11.42,5.11-11.42,11.42-11.42,11.42,5.11,11.42,11.42Z"/>
          <circle class="cls-12" cx="142.67" cy="200.73" r="11.42" transform="translate(-100.15 159.67) rotate(-45)"/>
          <circle class="cls-13" cx="15.07" cy="165.15" r="11.42"/>
          <polyline class="cls-7" points="134.68 193.51 15.43 124.81 15.43 78.75 133.97 8.53 247.43 72.8 247.43 83.63"/>
          <polyline class="cls-8" points="15.43 173.63 15.43 214.87 134.43 283.54 253.43 214.12 253.43 170.35 253.43 143.19 253.43 134.13 153.93 134.13"/>
        </g>
        <g>
          <path class="cls-15" d="M622.94,173.42c3.18-.48,6.96-.84,11.1-.84,7.5,0,12.84,1.74,16.38,5.04,3.6,3.3,5.7,7.98,5.7,14.52s-2.04,12-5.82,15.72c-3.78,3.78-10.02,5.82-17.88,5.82-3.72,0-6.84-.18-9.48-.48v-39.78ZM628.16,209.18c1.32.24,3.24.3,5.28.3,11.16,0,17.22-6.24,17.22-17.16.06-9.54-5.34-15.6-16.38-15.6-2.7,0-4.74.24-6.12.54v31.92Z"/>
          <path class="cls-15" d="M683.83,194.36h-15.72v14.58h17.52v4.38h-22.74v-40.44h21.84v4.38h-16.62v12.78h15.72v4.32Z"/>
          <path class="cls-15" d="M710.35,172.88v40.44h-5.22v-40.44h5.22Z"/>
          <path class="cls-15" d="M719.47,213.32v-40.44h5.7l12.96,20.46c3,4.74,5.34,9,7.26,13.14l.12-.06c-.48-5.4-.6-10.32-.6-16.62v-16.92h4.92v40.44h-5.28l-12.84-20.52c-2.82-4.5-5.52-9.12-7.56-13.5l-.18.06c.3,5.1.42,9.96.42,16.68v17.28h-4.92Z"/>
          <path class="cls-15" d="M789.73,211.52c-2.34.84-6.96,2.22-12.42,2.22-6.12,0-11.16-1.56-15.12-5.34-3.48-3.36-5.64-8.76-5.64-15.06.06-12.06,8.34-20.88,21.9-20.88,4.68,0,8.34,1.02,10.08,1.86l-1.26,4.26c-2.16-.96-4.86-1.74-8.94-1.74-9.84,0-16.26,6.12-16.26,16.26s6.18,16.32,15.6,16.32c3.42,0,5.76-.48,6.96-1.08v-12.06h-8.22v-4.2h13.32v19.44Z"/>
          <path class="cls-15" d="M818.65,194.36h-15.72v14.58h17.52v4.38h-22.74v-40.44h21.84v4.38h-16.62v12.78h15.72v4.32Z"/>
          <path class="cls-15" d="M827.23,213.32v-40.44h5.7l12.96,20.46c3,4.74,5.34,9,7.26,13.14l.12-.06c-.48-5.4-.6-10.32-.6-16.62v-16.92h4.92v40.44h-5.28l-12.84-20.52c-2.82-4.5-5.52-9.12-7.56-13.5l-.18.06c.3,5.1.42,9.96.42,16.68v17.28h-4.92Z"/>
          <path class="cls-15" d="M871.93,172.88v40.44h-5.22v-40.44h5.22Z"/>
          <path class="cls-15" d="M901.99,194.36h-15.72v14.58h17.52v4.38h-22.74v-40.44h21.84v4.38h-16.62v12.78h15.72v4.32Z"/>
          <path class="cls-15" d="M910.57,173.42c2.64-.54,6.42-.84,10.02-.84,5.58,0,9.18,1.02,11.7,3.3,2.04,1.8,3.18,4.56,3.18,7.68,0,5.34-3.36,8.88-7.62,10.32v.18c3.12,1.08,4.98,3.96,5.94,8.16,1.32,5.64,2.28,9.54,3.12,11.1h-5.4c-.66-1.14-1.56-4.62-2.7-9.66-1.2-5.58-3.36-7.68-8.1-7.86h-4.92v17.52h-5.22v-39.9ZM915.79,191.84h5.34c5.58,0,9.12-3.06,9.12-7.68,0-5.22-3.78-7.5-9.3-7.56-2.52,0-4.32.24-5.16.48v14.76Z"/>
          <path class="cls-15" d="M948.07,172.88v40.44h-5.22v-40.44h5.22Z"/>
          <path class="cls-15" d="M963.73,200.6l-4.2,12.72h-5.4l13.74-40.44h6.3l13.8,40.44h-5.58l-4.32-12.72h-14.34ZM976.99,196.52l-3.96-11.64c-.9-2.64-1.5-5.04-2.1-7.38h-.12c-.6,2.4-1.26,4.86-2.04,7.32l-3.96,11.7h12.18Z"/>
        </g>
        <g>
          <path class="cls-15" d="M276.92,139.48l13.65-9.59c3.74,6.01,9.17,8.75,16.49,8.75,8.01,0,13.38-3.27,13.38-7.8,0-6.22-10.17-11.12-19.07-15.54-9.54-4.74-20.02-9.96-20.02-23.5,0-14.7,12.43-24.4,28.03-24.4,11.59,0,21.18,4.79,25.03,15.07l-12.59,8.8c-2.53-5.06-7.43-7.11-12.17-7.11-6.38,0-11.12,3.69-11.12,8.06,0,5.06,6.43,6.8,16.18,11.38,14.07,6.64,22.92,13.8,22.92,26.87,0,15.49-12.65,25.34-30.82,25.34-13.91,0-24.18-5.79-29.87-16.33Z"/>
          <path class="cls-15" d="M344.26,111.77c0-24.39,19.86-44.31,44.15-44.31s44.21,19.92,44.21,44.31-19.92,44-44.26,44-44.1-19.81-44.1-44ZM415.34,111.67c0-14.86-12.12-26.98-26.98-26.98s-26.87,12.12-26.87,26.98,12.07,26.82,26.87,26.82,26.98-12.07,26.98-26.82Z"/>
          <path class="cls-15" d="M494.91,137.17v16.97h-51.21v-84.93h17.07v67.97h34.14Z"/>
          <path class="cls-15" d="M503.76,122.73v-53.53h17.18v53.48c0,9.27,7.32,16.02,15.54,16.02s15.65-6.8,15.65-16.02v-53.48h17.18v53.53c0,19.23-14.7,33.25-32.77,33.25s-32.77-14.01-32.77-33.25Z"/>
          <path class="cls-15" d="M579.64,111.72c0-23.97,20.18-44.26,44.1-44.26,11.07.16,20.87,4.53,29.77,13.12l-9.85,13.44c-5.8-5.69-12.75-9.17-20.07-9.17-13.65,0-26.66,12.12-26.66,26.98s13.49,26.82,26.61,26.82c7.8,0,14.54-4.16,20.18-9.7l9.8,13.8c-7.48,7.43-16.6,13.01-29.45,13.01-24.5,0-44.42-20.18-44.42-44.05Z"/>
          <path class="cls-15" d="M663.1,69.2h17.07v84.93h-17.07v-84.93Z"/>
          <path class="cls-15" d="M691.24,111.77c0-24.39,19.86-44.31,44.15-44.31s44.21,19.92,44.21,44.31-19.92,44-44.26,44-44.1-19.81-44.1-44ZM762.32,111.67c0-14.86-12.12-26.98-26.98-26.98s-26.87,12.12-26.87,26.98,12.07,26.82,26.87,26.82,26.98-12.07,26.98-26.82Z"/>
          <path class="cls-15" d="M858.96,68.99v86.73h-.79l-50.42-49.05v47.58h-17.07v-86.62h.84l50.32,48.95v-47.58h17.12Z"/>
          <path class="cls-15" d="M890.79,86.01v16.6h29.29v17.02h-29.29v17.55h34.14v16.97h-51.21v-84.93h51.21v16.81h-34.14Z"/>
          <path class="cls-15" d="M933.05,139.48l13.65-9.59c3.74,6.01,9.17,8.75,16.49,8.75,8.01,0,13.38-3.27,13.38-7.8,0-6.22-10.17-11.12-19.07-15.54-9.54-4.74-20.02-9.96-20.02-23.5,0-14.7,12.43-24.4,28.03-24.4,11.59,0,21.18,4.79,25.03,15.07l-12.59,8.8c-2.53-5.06-7.43-7.11-12.17-7.11-6.38,0-11.12,3.69-11.12,8.06,0,5.06,6.43,6.8,16.18,11.38,14.07,6.64,22.92,13.8,22.92,26.87,0,15.49-12.64,25.34-30.82,25.34-13.91,0-24.18-5.79-29.88-16.33Z"/>
        </g>
        <circle class="cls-5" cx="246.94" cy="97.37" r="11.52"/>
        <circle class="cls-5" cx="142.43" cy="136.93" r="11.52"/>
        <circle class="cls-5" cx="15.07" cy="165.15" r="11.52"/>
        <circle class="cls-5" cx="142.85" cy="200.91" r="11.52"/>
      </g>
    </g>
  </g>
</svg>